<mxfile host="app.diagrams.net" modified="2023-03-08T17:24:07.150Z" agent="5.0 (X11)" etag="yvX9ZbElRYx2RnoTmz-F" version="21.0.2" type="github">
  <diagram name="Page-1" id="ph_byzu_aYL5lYIVE-Ck">
    <mxGraphModel dx="1216" dy="692" grid="1" gridSize="10" guides="1" tooltips="1" connect="1" arrows="1" fold="1" page="1" pageScale="1" pageWidth="850" pageHeight="1100" math="0" shadow="0">
      <root>
        <mxCell id="0" />
        <mxCell id="1" parent="0" />
        <mxCell id="kCsf_dEb_IwBwz_RIPwz-3" value="" style="edgeStyle=orthogonalEdgeStyle;rounded=0;orthogonalLoop=1;jettySize=auto;html=1;strokeWidth=3;" parent="1" source="kCsf_dEb_IwBwz_RIPwz-1" target="kCsf_dEb_IwBwz_RIPwz-2" edge="1">
          <mxGeometry relative="1" as="geometry" />
        </mxCell>
        <mxCell id="kCsf_dEb_IwBwz_RIPwz-5" value="" style="edgeStyle=orthogonalEdgeStyle;rounded=0;orthogonalLoop=1;jettySize=auto;html=1;strokeWidth=3;" parent="1" source="kCsf_dEb_IwBwz_RIPwz-2" target="kCsf_dEb_IwBwz_RIPwz-4" edge="1">
          <mxGeometry relative="1" as="geometry" />
        </mxCell>
        <mxCell id="kCsf_dEb_IwBwz_RIPwz-7" value="" style="edgeStyle=orthogonalEdgeStyle;rounded=0;orthogonalLoop=1;jettySize=auto;html=1;strokeWidth=3;" parent="1" source="kCsf_dEb_IwBwz_RIPwz-4" target="kCsf_dEb_IwBwz_RIPwz-6" edge="1">
          <mxGeometry relative="1" as="geometry" />
        </mxCell>
        <mxCell id="kCsf_dEb_IwBwz_RIPwz-4" value="" style="ellipse;whiteSpace=wrap;html=1;rounded=0;strokeWidth=3;" parent="1" vertex="1">
          <mxGeometry x="445" y="65" width="30" height="30" as="geometry" />
        </mxCell>
        <mxCell id="kCsf_dEb_IwBwz_RIPwz-9" value="" style="edgeStyle=orthogonalEdgeStyle;rounded=0;orthogonalLoop=1;jettySize=auto;html=1;strokeWidth=3;" parent="1" source="kCsf_dEb_IwBwz_RIPwz-6" target="kCsf_dEb_IwBwz_RIPwz-8" edge="1">
          <mxGeometry relative="1" as="geometry" />
        </mxCell>
        <mxCell id="kCsf_dEb_IwBwz_RIPwz-11" value="" style="edgeStyle=orthogonalEdgeStyle;rounded=0;orthogonalLoop=1;jettySize=auto;html=1;strokeWidth=3;endArrow=none;endFill=0;" parent="1" source="kCsf_dEb_IwBwz_RIPwz-8" target="kCsf_dEb_IwBwz_RIPwz-10" edge="1">
          <mxGeometry relative="1" as="geometry" />
        </mxCell>
        <mxCell id="kCsf_dEb_IwBwz_RIPwz-13" value="" style="edgeStyle=orthogonalEdgeStyle;rounded=0;orthogonalLoop=1;jettySize=auto;html=1;strokeWidth=3;" parent="1" source="kCsf_dEb_IwBwz_RIPwz-10" edge="1">
          <mxGeometry relative="1" as="geometry">
            <mxPoint x="805" y="80" as="targetPoint" />
          </mxGeometry>
        </mxCell>
        <mxCell id="kCsf_dEb_IwBwz_RIPwz-10" value="" style="shape=waypoint;sketch=0;size=6;pointerEvents=1;points=[];fillColor=default;resizable=0;rotatable=0;perimeter=centerPerimeter;snapToPoint=1;rounded=0;strokeWidth=3;" parent="1" vertex="1">
          <mxGeometry x="755" y="70" width="20" height="20" as="geometry" />
        </mxCell>
        <mxCell id="kCsf_dEb_IwBwz_RIPwz-17" value="" style="edgeStyle=orthogonalEdgeStyle;rounded=0;orthogonalLoop=1;jettySize=auto;html=1;strokeWidth=3;" parent="1" source="kCsf_dEb_IwBwz_RIPwz-16" target="kCsf_dEb_IwBwz_RIPwz-1" edge="1">
          <mxGeometry relative="1" as="geometry" />
        </mxCell>
        <mxCell id="kCsf_dEb_IwBwz_RIPwz-16" value="" style="ellipse;whiteSpace=wrap;html=1;rounded=0;strokeWidth=3;" parent="1" vertex="1">
          <mxGeometry x="85" y="65" width="30" height="30" as="geometry" />
        </mxCell>
        <mxCell id="kCsf_dEb_IwBwz_RIPwz-18" value="" style="endArrow=classic;html=1;rounded=0;entryX=0;entryY=0.5;entryDx=0;entryDy=0;strokeWidth=3;" parent="1" target="kCsf_dEb_IwBwz_RIPwz-16" edge="1">
          <mxGeometry width="50" height="50" relative="1" as="geometry">
            <mxPoint x="45" y="80" as="sourcePoint" />
            <mxPoint x="725" y="370" as="targetPoint" />
          </mxGeometry>
        </mxCell>
        <mxCell id="kCsf_dEb_IwBwz_RIPwz-24" value="" style="group" parent="1" vertex="1" connectable="0">
          <mxGeometry x="165" y="50" width="100" height="60" as="geometry" />
        </mxCell>
        <mxCell id="kCsf_dEb_IwBwz_RIPwz-1" value="" style="rounded=0;whiteSpace=wrap;html=1;strokeWidth=3;" parent="kCsf_dEb_IwBwz_RIPwz-24" vertex="1">
          <mxGeometry width="100" height="60" as="geometry" />
        </mxCell>
        <mxCell id="kCsf_dEb_IwBwz_RIPwz-20" value="" style="endArrow=none;html=1;rounded=0;entryX=1;entryY=0.25;entryDx=0;entryDy=0;exitX=0;exitY=0.25;exitDx=0;exitDy=0;strokeWidth=3;" parent="kCsf_dEb_IwBwz_RIPwz-24" source="kCsf_dEb_IwBwz_RIPwz-1" target="kCsf_dEb_IwBwz_RIPwz-1" edge="1">
          <mxGeometry width="50" height="50" relative="1" as="geometry">
            <mxPoint x="425" y="370" as="sourcePoint" />
            <mxPoint x="466.6666666666667" y="320" as="targetPoint" />
          </mxGeometry>
        </mxCell>
        <mxCell id="kCsf_dEb_IwBwz_RIPwz-25" value="" style="group" parent="1" vertex="1" connectable="0">
          <mxGeometry x="303" y="50" width="95" height="60" as="geometry" />
        </mxCell>
        <mxCell id="kCsf_dEb_IwBwz_RIPwz-2" value="" style="rounded=0;whiteSpace=wrap;html=1;strokeWidth=3;" parent="kCsf_dEb_IwBwz_RIPwz-25" vertex="1">
          <mxGeometry width="95" height="60" as="geometry" />
        </mxCell>
        <mxCell id="kCsf_dEb_IwBwz_RIPwz-21" value="" style="endArrow=none;html=1;rounded=0;exitX=0;exitY=1;exitDx=0;exitDy=0;entryX=1;entryY=0;entryDx=0;entryDy=0;strokeWidth=3;" parent="kCsf_dEb_IwBwz_RIPwz-25" source="kCsf_dEb_IwBwz_RIPwz-2" target="kCsf_dEb_IwBwz_RIPwz-2" edge="1">
          <mxGeometry width="50" height="50" relative="1" as="geometry">
            <mxPoint x="245.41666666666666" y="370" as="sourcePoint" />
            <mxPoint x="285" y="320" as="targetPoint" />
          </mxGeometry>
        </mxCell>
        <mxCell id="kCsf_dEb_IwBwz_RIPwz-26" value="" style="group" parent="1" vertex="1" connectable="0">
          <mxGeometry x="515" y="50" width="100" height="60" as="geometry" />
        </mxCell>
        <mxCell id="kCsf_dEb_IwBwz_RIPwz-6" value="" style="whiteSpace=wrap;html=1;rounded=0;strokeWidth=3;" parent="kCsf_dEb_IwBwz_RIPwz-26" vertex="1">
          <mxGeometry width="100" height="60" as="geometry" />
        </mxCell>
        <mxCell id="kCsf_dEb_IwBwz_RIPwz-22" value="" style="curved=1;endArrow=none;html=1;rounded=0;endFill=0;strokeWidth=3;entryX=1;entryY=0.25;entryDx=0;entryDy=0;exitX=0;exitY=1;exitDx=0;exitDy=0;" parent="kCsf_dEb_IwBwz_RIPwz-26" source="kCsf_dEb_IwBwz_RIPwz-6" target="kCsf_dEb_IwBwz_RIPwz-6" edge="1">
          <mxGeometry width="50" height="50" relative="1" as="geometry">
            <mxPoint x="37.5" y="370" as="sourcePoint" />
            <mxPoint x="137.5" y="290" as="targetPoint" />
            <Array as="points">
              <mxPoint x="12.5" y="30" />
              <mxPoint x="37.5" y="10" />
            </Array>
          </mxGeometry>
        </mxCell>
        <mxCell id="kCsf_dEb_IwBwz_RIPwz-27" value="" style="group" parent="1" vertex="1" connectable="0">
          <mxGeometry x="645" y="50" width="100" height="60" as="geometry" />
        </mxCell>
        <mxCell id="kCsf_dEb_IwBwz_RIPwz-8" value="" style="whiteSpace=wrap;html=1;rounded=0;strokeWidth=3;" parent="kCsf_dEb_IwBwz_RIPwz-27" vertex="1">
          <mxGeometry width="100" height="60" as="geometry" />
        </mxCell>
        <mxCell id="kCsf_dEb_IwBwz_RIPwz-23" value="" style="curved=1;endArrow=none;html=1;rounded=0;endFill=0;strokeWidth=3;entryX=1;entryY=0.25;entryDx=0;entryDy=0;exitX=0;exitY=1;exitDx=0;exitDy=0;" parent="kCsf_dEb_IwBwz_RIPwz-27" edge="1">
          <mxGeometry width="50" height="50" relative="1" as="geometry">
            <mxPoint y="60" as="sourcePoint" />
            <mxPoint x="100" y="15" as="targetPoint" />
            <Array as="points">
              <mxPoint x="12.5" y="30" />
              <mxPoint x="37.5" y="10" />
            </Array>
          </mxGeometry>
        </mxCell>
        <mxCell id="kCsf_dEb_IwBwz_RIPwz-29" value="" style="endArrow=classic;html=1;rounded=0;entryX=0.5;entryY=1;entryDx=0;entryDy=0;strokeWidth=3;" parent="1" source="kCsf_dEb_IwBwz_RIPwz-10" target="kCsf_dEb_IwBwz_RIPwz-16" edge="1">
          <mxGeometry width="50" height="50" relative="1" as="geometry">
            <mxPoint x="790" y="110" as="sourcePoint" />
            <mxPoint x="615" y="200" as="targetPoint" />
            <Array as="points">
              <mxPoint x="765" y="200" />
              <mxPoint x="100" y="200" />
            </Array>
          </mxGeometry>
        </mxCell>
        <mxCell id="kCsf_dEb_IwBwz_RIPwz-31" value="&lt;i&gt;&lt;font face=&quot;Georgia&quot;&gt;&lt;font style=&quot;font-size: 13px;&quot;&gt;&lt;font style=&quot;font-size: 14px;&quot;&gt;&lt;font style=&quot;font-size: 15px;&quot;&gt;&lt;font style=&quot;font-size: 16px;&quot;&gt;&lt;font style=&quot;font-size: 17px;&quot;&gt;&lt;font style=&quot;font-size: 18px;&quot;&gt;W&lt;/font&gt;&lt;/font&gt;&lt;/font&gt;&lt;/font&gt;&lt;/font&gt;&lt;/font&gt;&lt;/font&gt;&lt;/i&gt;&lt;font face=&quot;Georgia&quot;&gt;&lt;font style=&quot;font-size: 13px;&quot;&gt;&lt;font style=&quot;font-size: 14px;&quot;&gt;&lt;font style=&quot;font-size: 15px;&quot;&gt;&lt;font style=&quot;font-size: 16px;&quot;&gt;&lt;font style=&quot;font-size: 17px;&quot;&gt;&lt;font style=&quot;font-size: 18px;&quot;&gt;(&lt;/font&gt;&lt;/font&gt;&lt;/font&gt;&lt;/font&gt;&lt;/font&gt;&lt;/font&gt;&lt;/font&gt;&lt;i&gt;&lt;font face=&quot;Georgia&quot;&gt;&lt;font style=&quot;font-size: 13px;&quot;&gt;&lt;font style=&quot;font-size: 14px;&quot;&gt;&lt;font style=&quot;font-size: 15px;&quot;&gt;&lt;font style=&quot;font-size: 16px;&quot;&gt;&lt;font style=&quot;font-size: 17px;&quot;&gt;&lt;font style=&quot;font-size: 18px;&quot;&gt;s&lt;/font&gt;&lt;/font&gt;&lt;/font&gt;&lt;/font&gt;&lt;/font&gt;&lt;/font&gt;&lt;/font&gt;&lt;/i&gt;&lt;font face=&quot;Georgia&quot;&gt;&lt;font style=&quot;font-size: 13px;&quot;&gt;&lt;font style=&quot;font-size: 14px;&quot;&gt;&lt;font style=&quot;font-size: 15px;&quot;&gt;&lt;font style=&quot;font-size: 16px;&quot;&gt;&lt;font style=&quot;font-size: 17px;&quot;&gt;&lt;font style=&quot;font-size: 18px;&quot;&gt;)&lt;/font&gt;&lt;/font&gt;&lt;/font&gt;&lt;/font&gt;&lt;/font&gt;&lt;/font&gt;&lt;/font&gt;" style="text;html=1;strokeColor=none;fillColor=none;align=center;verticalAlign=middle;whiteSpace=wrap;rounded=0;fontFamily=Times New Roman;" parent="1" vertex="1">
          <mxGeometry x="25" y="45" width="60" height="30" as="geometry" />
        </mxCell>
        <mxCell id="kCsf_dEb_IwBwz_RIPwz-34" value="" style="endArrow=none;html=1;rounded=0;strokeWidth=2;" parent="1" edge="1">
          <mxGeometry width="50" height="50" relative="1" as="geometry">
            <mxPoint x="120" y="120" as="sourcePoint" />
            <mxPoint x="110" y="120" as="targetPoint" />
          </mxGeometry>
        </mxCell>
        <mxCell id="kCsf_dEb_IwBwz_RIPwz-35" value="" style="endArrow=none;html=1;rounded=0;strokeWidth=2;" parent="1" edge="1">
          <mxGeometry width="50" height="50" relative="1" as="geometry">
            <mxPoint x="480" y="50" as="sourcePoint" />
            <mxPoint x="470" y="50" as="targetPoint" />
          </mxGeometry>
        </mxCell>
        <mxCell id="kCsf_dEb_IwBwz_RIPwz-38" value="" style="group;strokeWidth=1;strokeColor=none;" parent="1" vertex="1" connectable="0">
          <mxGeometry x="415" y="60" width="20" height="20" as="geometry" />
        </mxCell>
        <mxCell id="kCsf_dEb_IwBwz_RIPwz-36" value="" style="endArrow=none;html=1;rounded=0;strokeWidth=2;" parent="kCsf_dEb_IwBwz_RIPwz-38" edge="1">
          <mxGeometry width="50" height="50" relative="1" as="geometry">
            <mxPoint x="15" y="10" as="sourcePoint" />
            <mxPoint x="5" y="10" as="targetPoint" />
          </mxGeometry>
        </mxCell>
        <mxCell id="kCsf_dEb_IwBwz_RIPwz-37" value="" style="endArrow=none;html=1;rounded=0;strokeWidth=2;" parent="kCsf_dEb_IwBwz_RIPwz-38" edge="1">
          <mxGeometry width="50" height="50" relative="1" as="geometry">
            <mxPoint x="10" y="5" as="sourcePoint" />
            <mxPoint x="10" y="15" as="targetPoint" />
          </mxGeometry>
        </mxCell>
        <mxCell id="kCsf_dEb_IwBwz_RIPwz-39" value="" style="endArrow=classic;html=1;rounded=0;entryX=0.5;entryY=0;entryDx=0;entryDy=0;strokeWidth=3;" parent="1" target="kCsf_dEb_IwBwz_RIPwz-4" edge="1">
          <mxGeometry width="50" height="50" relative="1" as="geometry">
            <mxPoint x="460" y="10" as="sourcePoint" />
            <mxPoint x="350" y="40" as="targetPoint" />
          </mxGeometry>
        </mxCell>
        <mxCell id="kCsf_dEb_IwBwz_RIPwz-40" value="&lt;i&gt;&lt;font face=&quot;Georgia&quot;&gt;&lt;font style=&quot;font-size: 13px;&quot;&gt;&lt;font style=&quot;font-size: 14px;&quot;&gt;&lt;font style=&quot;font-size: 15px;&quot;&gt;&lt;font style=&quot;font-size: 16px;&quot;&gt;&lt;font style=&quot;font-size: 17px;&quot;&gt;&lt;font style=&quot;font-size: 18px;&quot;&gt;X&lt;/font&gt;&lt;/font&gt;&lt;/font&gt;&lt;/font&gt;&lt;/font&gt;&lt;/font&gt;&lt;/font&gt;&lt;/i&gt;&lt;font face=&quot;Georgia&quot;&gt;&lt;font style=&quot;font-size: 13px;&quot;&gt;&lt;font style=&quot;font-size: 14px;&quot;&gt;&lt;font style=&quot;font-size: 15px;&quot;&gt;&lt;font style=&quot;font-size: 16px;&quot;&gt;&lt;font style=&quot;font-size: 17px;&quot;&gt;&lt;font style=&quot;font-size: 18px;&quot;&gt;(&lt;/font&gt;&lt;/font&gt;&lt;/font&gt;&lt;/font&gt;&lt;/font&gt;&lt;/font&gt;&lt;/font&gt;&lt;i&gt;&lt;font face=&quot;Georgia&quot;&gt;&lt;font style=&quot;font-size: 13px;&quot;&gt;&lt;font style=&quot;font-size: 14px;&quot;&gt;&lt;font style=&quot;font-size: 15px;&quot;&gt;&lt;font style=&quot;font-size: 16px;&quot;&gt;&lt;font style=&quot;font-size: 17px;&quot;&gt;&lt;font style=&quot;font-size: 18px;&quot;&gt;s&lt;/font&gt;&lt;/font&gt;&lt;/font&gt;&lt;/font&gt;&lt;/font&gt;&lt;/font&gt;&lt;/font&gt;&lt;/i&gt;&lt;font face=&quot;Georgia&quot;&gt;&lt;font style=&quot;font-size: 13px;&quot;&gt;&lt;font style=&quot;font-size: 14px;&quot;&gt;&lt;font style=&quot;font-size: 15px;&quot;&gt;&lt;font style=&quot;font-size: 16px;&quot;&gt;&lt;font style=&quot;font-size: 17px;&quot;&gt;&lt;font style=&quot;font-size: 18px;&quot;&gt;)&lt;/font&gt;&lt;/font&gt;&lt;/font&gt;&lt;/font&gt;&lt;/font&gt;&lt;/font&gt;&lt;/font&gt;" style="text;html=1;strokeColor=none;fillColor=none;align=center;verticalAlign=middle;whiteSpace=wrap;rounded=0;fontFamily=Times New Roman;" parent="1" vertex="1">
          <mxGeometry x="775" y="45" width="60" height="30" as="geometry" />
        </mxCell>
        <mxCell id="kCsf_dEb_IwBwz_RIPwz-41" value="&lt;i style=&quot;font-size: 18px;&quot;&gt;&lt;font style=&quot;font-size: 18px;&quot; face=&quot;Georgia&quot;&gt;G&lt;sub style=&quot;font-size: 18px;&quot;&gt;R&lt;/sub&gt;&lt;/font&gt;&lt;/i&gt;&lt;span style=&quot;font-size: 18px;&quot;&gt;&lt;font style=&quot;font-size: 18px;&quot; face=&quot;Georgia&quot;&gt;(&lt;/font&gt;&lt;/span&gt;&lt;i style=&quot;font-size: 18px;&quot;&gt;&lt;font style=&quot;font-size: 18px;&quot; face=&quot;Georgia&quot;&gt;s&lt;/font&gt;&lt;/i&gt;&lt;span style=&quot;font-size: 18px;&quot;&gt;&lt;font style=&quot;font-size: 18px;&quot; face=&quot;Georgia&quot;&gt;)&lt;/font&gt;&lt;/span&gt;" style="text;html=1;strokeColor=none;fillColor=none;align=center;verticalAlign=middle;whiteSpace=wrap;rounded=0;fontFamily=Times New Roman;fontSize=18;" parent="1" vertex="1">
          <mxGeometry x="185" y="110" width="60" height="30" as="geometry" />
        </mxCell>
        <mxCell id="kCsf_dEb_IwBwz_RIPwz-42" value="&lt;i style=&quot;font-size: 18px;&quot;&gt;&lt;font style=&quot;font-size: 18px;&quot; face=&quot;Georgia&quot;&gt;G&lt;sub style=&quot;font-size: 18px;&quot;&gt;S&lt;/sub&gt;&lt;/font&gt;&lt;/i&gt;&lt;font style=&quot;font-size: 18px;&quot; face=&quot;Georgia&quot;&gt;&lt;sub style=&quot;font-size: 18px;&quot;&gt;1&lt;/sub&gt;&lt;/font&gt;&lt;span style=&quot;font-size: 18px;&quot;&gt;&lt;font style=&quot;font-size: 18px;&quot; face=&quot;Georgia&quot;&gt;(&lt;/font&gt;&lt;/span&gt;&lt;i style=&quot;font-size: 18px;&quot;&gt;&lt;font style=&quot;font-size: 18px;&quot; face=&quot;Georgia&quot;&gt;s&lt;/font&gt;&lt;/i&gt;&lt;span style=&quot;font-size: 18px;&quot;&gt;&lt;font style=&quot;font-size: 18px;&quot; face=&quot;Georgia&quot;&gt;)&lt;/font&gt;&lt;/span&gt;" style="text;html=1;strokeColor=none;fillColor=none;align=center;verticalAlign=middle;whiteSpace=wrap;rounded=0;fontFamily=Times New Roman;fontSize=18;" parent="1" vertex="1">
          <mxGeometry x="320.5" y="110" width="60" height="30" as="geometry" />
        </mxCell>
        <mxCell id="kCsf_dEb_IwBwz_RIPwz-43" value="&lt;i style=&quot;font-size: 18px;&quot;&gt;&lt;font style=&quot;font-size: 18px;&quot; face=&quot;Georgia&quot;&gt;G&lt;sub style=&quot;font-size: 18px;&quot;&gt;S&lt;/sub&gt;&lt;/font&gt;&lt;/i&gt;&lt;font style=&quot;font-size: 18px;&quot; face=&quot;Georgia&quot;&gt;&lt;sub style=&quot;font-size: 18px;&quot;&gt;2&lt;/sub&gt;&lt;/font&gt;&lt;span style=&quot;font-size: 18px;&quot;&gt;&lt;font style=&quot;font-size: 18px;&quot; face=&quot;Georgia&quot;&gt;(&lt;/font&gt;&lt;/span&gt;&lt;i style=&quot;font-size: 18px;&quot;&gt;&lt;font style=&quot;font-size: 18px;&quot; face=&quot;Georgia&quot;&gt;s&lt;/font&gt;&lt;/i&gt;&lt;span style=&quot;font-size: 18px;&quot;&gt;&lt;font style=&quot;font-size: 18px;&quot; face=&quot;Georgia&quot;&gt;)&lt;/font&gt;&lt;/span&gt;" style="text;html=1;strokeColor=none;fillColor=none;align=center;verticalAlign=middle;whiteSpace=wrap;rounded=0;fontFamily=Times New Roman;fontSize=18;" parent="1" vertex="1">
          <mxGeometry x="535" y="110" width="60" height="30" as="geometry" />
        </mxCell>
        <mxCell id="kCsf_dEb_IwBwz_RIPwz-44" value="&lt;i style=&quot;font-size: 18px;&quot;&gt;&lt;font style=&quot;font-size: 18px;&quot; face=&quot;Georgia&quot;&gt;G&lt;sub style=&quot;font-size: 18px;&quot;&gt;S&lt;/sub&gt;&lt;/font&gt;&lt;/i&gt;&lt;font style=&quot;font-size: 18px;&quot; face=&quot;Georgia&quot;&gt;&lt;sub style=&quot;font-size: 18px;&quot;&gt;3&lt;/sub&gt;&lt;/font&gt;&lt;span style=&quot;font-size: 18px;&quot;&gt;&lt;font style=&quot;font-size: 18px;&quot; face=&quot;Georgia&quot;&gt;(&lt;/font&gt;&lt;/span&gt;&lt;i style=&quot;font-size: 18px;&quot;&gt;&lt;font style=&quot;font-size: 18px;&quot; face=&quot;Georgia&quot;&gt;s&lt;/font&gt;&lt;/i&gt;&lt;span style=&quot;font-size: 18px;&quot;&gt;&lt;font style=&quot;font-size: 18px;&quot; face=&quot;Georgia&quot;&gt;)&lt;/font&gt;&lt;/span&gt;" style="text;html=1;strokeColor=none;fillColor=none;align=center;verticalAlign=middle;whiteSpace=wrap;rounded=0;fontFamily=Times New Roman;fontSize=18;" parent="1" vertex="1">
          <mxGeometry x="665" y="110" width="60" height="30" as="geometry" />
        </mxCell>
        <mxCell id="kCsf_dEb_IwBwz_RIPwz-45" value="&lt;font style=&quot;font-size: 15px;&quot;&gt;&lt;i&gt;&lt;font style=&quot;font-size: 15px;&quot; face=&quot;Georgia&quot;&gt;&lt;font style=&quot;font-size: 15px;&quot;&gt;&lt;font style=&quot;font-size: 16px;&quot;&gt;&lt;font style=&quot;font-size: 17px;&quot;&gt;&lt;font style=&quot;font-size: 18px;&quot;&gt;K&lt;/font&gt;&lt;/font&gt;&lt;/font&gt;&lt;/font&gt;&lt;/font&gt;&lt;/i&gt;&lt;/font&gt;" style="text;html=1;strokeColor=none;fillColor=none;align=center;verticalAlign=middle;whiteSpace=wrap;rounded=0;fontFamily=Times New Roman;" parent="1" vertex="1">
          <mxGeometry x="165" y="25" width="15" height="20" as="geometry" />
        </mxCell>
        <mxCell id="kCsf_dEb_IwBwz_RIPwz-46" value="&lt;font style=&quot;font-size: 18px;&quot;&gt;&lt;i&gt;&lt;font style=&quot;font-size: 18px;&quot; face=&quot;Georgia&quot;&gt;K&lt;/font&gt;&lt;/i&gt;&lt;font style=&quot;font-size: 18px;&quot; face=&quot;Georgia&quot;&gt;&lt;sub&gt;1&lt;/sub&gt;&lt;/font&gt;&lt;/font&gt;" style="text;html=1;strokeColor=none;fillColor=none;align=center;verticalAlign=middle;whiteSpace=wrap;rounded=0;fontFamily=Times New Roman;" parent="1" vertex="1">
          <mxGeometry x="515" y="25" width="15" height="20" as="geometry" />
        </mxCell>
        <mxCell id="kCsf_dEb_IwBwz_RIPwz-48" value="&lt;font style=&quot;font-size: 18px;&quot; face=&quot;Georgia&quot;&gt;&lt;font style=&quot;font-size: 18px;&quot;&gt;1&lt;/font&gt;&lt;/font&gt;" style="text;html=1;strokeColor=none;fillColor=none;align=center;verticalAlign=middle;whiteSpace=wrap;rounded=0;fontFamily=Times New Roman;" parent="1" vertex="1">
          <mxGeometry x="303" y="25" width="15" height="20" as="geometry" />
        </mxCell>
        <mxCell id="kCsf_dEb_IwBwz_RIPwz-49" value="&lt;font style=&quot;font-size: 18px;&quot;&gt;&lt;i&gt;&lt;font style=&quot;font-size: 18px;&quot; face=&quot;Georgia&quot;&gt;K&lt;/font&gt;&lt;/i&gt;&lt;font style=&quot;font-size: 18px;&quot; face=&quot;Georgia&quot;&gt;&lt;sub&gt;2&lt;/sub&gt;&lt;/font&gt;&lt;/font&gt;" style="text;html=1;strokeColor=none;fillColor=none;align=center;verticalAlign=middle;whiteSpace=wrap;rounded=0;fontFamily=Times New Roman;" parent="1" vertex="1">
          <mxGeometry x="645" y="25" width="15" height="20" as="geometry" />
        </mxCell>
        <mxCell id="kCsf_dEb_IwBwz_RIPwz-50" value="&lt;font style=&quot;font-size: 18px;&quot;&gt;&lt;i&gt;&lt;font style=&quot;font-size: 18px;&quot; face=&quot;Georgia&quot;&gt;T&lt;/font&gt;&lt;/i&gt;&lt;font style=&quot;font-size: 18px;&quot; face=&quot;Georgia&quot;&gt;&lt;sub&gt;1&lt;/sub&gt;&lt;/font&gt;&lt;/font&gt;" style="text;html=1;strokeColor=none;fillColor=none;align=center;verticalAlign=middle;whiteSpace=wrap;rounded=0;fontFamily=Times New Roman;" parent="1" vertex="1">
          <mxGeometry x="600" y="25" width="15" height="20" as="geometry" />
        </mxCell>
        <mxCell id="kCsf_dEb_IwBwz_RIPwz-51" value="&lt;font style=&quot;font-size: 18px;&quot;&gt;&lt;i&gt;&lt;font style=&quot;font-size: 18px;&quot; face=&quot;Georgia&quot;&gt;T&lt;/font&gt;&lt;/i&gt;&lt;font style=&quot;font-size: 18px;&quot; face=&quot;Georgia&quot;&gt;&lt;sub&gt;2&lt;/sub&gt;&lt;/font&gt;&lt;/font&gt;" style="text;html=1;strokeColor=none;fillColor=none;align=center;verticalAlign=middle;whiteSpace=wrap;rounded=0;fontFamily=Times New Roman;" parent="1" vertex="1">
          <mxGeometry x="730" y="25" width="15" height="20" as="geometry" />
        </mxCell>
      </root>
    </mxGraphModel>
  </diagram>
</mxfile>
